# xmcd CD database file
#
# Track frame offsets:
#	183
#	22433
#	50503
#	77745
#	103550
#	127375
#	147940
#	175990
#
# Disc length: 2740 seconds
#
# Revision: 0
# Processed by: cddbd v1.5.1PL0 Copyright (c) Steve Scherf et al.
# Submitted via: CDex 1.51
#
DISCID=760ab208
DTITLE=Ken Colyer's All Star Jazzmen - I Want to Be Happy
DYEAR=1900
DGENRE=Jazz
TTITLE0=I Want to Be Happy
TTITLE1=Go Down Sunshine
TTITLE2=Sister Kate
TTITLE3=Basin Street Blues
TTITLE4=Hot Time in the Old Town
TTITLE5=Cheek to Cheek
TTITLE6=It's only a Paper Moon
TTITLE7=One Sweet Letter from You
EXTD=
EXTT0=
EXTT1=
EXTT2=
EXTT3=
EXTT4=
EXTT5=
EXTT6=
EXTT7=
PLAYORDER=
